<svg xmlns="http://www.w3.org/2000/svg" xmlns:xlink="http://www.w3.org/1999/xlink" width="1920" zoomAndPan="magnify" viewBox="0 0 1440 809.999993" height="1080" preserveAspectRatio="xMidYMid meet" version="1.0"><defs><g/><clipPath id="6a7c4a2ed8"><path d="M 423 142 L 536 142 L 536 199 L 423 199 Z M 423 142 " clip-rule="nonzero"/></clipPath><clipPath id="2a5262a083"><path d="M 417.570312 177.742188 L 528.339844 131.125 L 541.730469 162.941406 L 430.960938 209.558594 Z M 417.570312 177.742188 " clip-rule="nonzero"/></clipPath><clipPath id="0d06196802"><path d="M 417.570312 177.742188 L 528.339844 131.125 L 541.730469 162.941406 L 430.960938 209.558594 Z M 417.570312 177.742188 " clip-rule="nonzero"/></clipPath><clipPath id="b2c49f3e53"><path d="M 423 220 L 536 220 L 536 277 L 423 277 Z M 423 220 " clip-rule="nonzero"/></clipPath><clipPath id="70318b3f55"><path d="M 417.570312 256.140625 L 528.339844 209.527344 L 541.730469 241.34375 L 430.960938 287.960938 Z M 417.570312 256.140625 " clip-rule="nonzero"/></clipPath><clipPath id="6957218092"><path d="M 417.570312 256.140625 L 528.339844 209.527344 L 541.730469 241.34375 L 430.960938 287.960938 Z M 417.570312 256.140625 " clip-rule="nonzero"/></clipPath><clipPath id="1f1e9d2083"><path d="M 423 290 L 536 290 L 536 347 L 423 347 Z M 423 290 " clip-rule="nonzero"/></clipPath><clipPath id="f40baa4f98"><path d="M 417.570312 326.101562 L 528.339844 279.488281 L 541.730469 311.304688 L 430.960938 357.921875 Z M 417.570312 326.101562 " clip-rule="nonzero"/></clipPath><clipPath id="6579e2121e"><path d="M 417.570312 326.101562 L 528.339844 279.488281 L 541.730469 311.304688 L 430.960938 357.921875 Z M 417.570312 326.101562 " clip-rule="nonzero"/></clipPath><clipPath id="1e96a16bea"><path d="M 284 142 L 396 142 L 396 199 L 284 199 Z M 284 142 " clip-rule="nonzero"/></clipPath><clipPath id="26a1c4c156"><path d="M 291.3125 131.148438 L 402.027344 177.902344 L 388.597656 209.703125 L 277.886719 162.949219 Z M 291.3125 131.148438 " clip-rule="nonzero"/></clipPath><clipPath id="6dcd7a11dd"><path d="M 401.972656 177.878906 L 291.257812 131.125 L 277.828125 162.925781 L 388.542969 209.679688 Z M 401.972656 177.878906 " clip-rule="nonzero"/></clipPath><clipPath id="01955a35cc"><path d="M 284 220 L 396 220 L 396 277 L 284 277 Z M 284 220 " clip-rule="nonzero"/></clipPath><clipPath id="03389216e2"><path d="M 291.324219 209.488281 L 402.035156 256.242188 L 388.605469 288.042969 L 277.894531 241.289062 Z M 291.324219 209.488281 " clip-rule="nonzero"/></clipPath><clipPath id="797a8f4c30"><path d="M 401.980469 256.21875 L 291.269531 209.464844 L 277.839844 241.265625 L 388.550781 288.019531 Z M 401.980469 256.21875 " clip-rule="nonzero"/></clipPath><clipPath id="20ed47bdb3"><path d="M 284 290 L 396 290 L 396 347 L 284 347 Z M 284 290 " clip-rule="nonzero"/></clipPath><clipPath id="34ae061348"><path d="M 291.324219 279.449219 L 402.035156 326.203125 L 388.605469 358.003906 L 277.894531 311.25 Z M 291.324219 279.449219 " clip-rule="nonzero"/></clipPath><clipPath id="76999eea00"><path d="M 401.980469 326.179688 L 291.269531 279.425781 L 277.839844 311.226562 L 388.550781 357.980469 Z M 401.980469 326.179688 " clip-rule="nonzero"/></clipPath></defs><path stroke-linecap="butt" transform="matrix(0.00000000223141, -1.278505, 1.278505, 0.00000000223141, 402.608132, 755.020758)" fill="none" stroke-linejoin="miter" d="M 0.000959543 6.49965 L 498.810336 6.499649 " stroke="#02577a" stroke-width="13" stroke-opacity="1" stroke-miterlimit="4"/><path stroke-linecap="round" transform="matrix(0.00000000223141, -1.278505, 1.278505, 0.00000000223141, 402.608132, 755.020758)" fill-opacity="1" fill="#02577a" fill-rule="nonzero" stroke-linejoin="round" d="M 541.062431 6.499649 C 541.062431 17.269671 532.330311 25.998736 521.563344 25.998736 C 510.793322 25.998736 502.061202 17.269671 502.061202 6.499649 C 502.061202 -4.270373 510.793322 -12.999438 521.563344 -12.999438 C 532.330311 -12.999438 541.062431 -4.270373 541.062431 6.499649 " stroke="#02577a" stroke-width="13" stroke-opacity="1" stroke-miterlimit="4"/><path stroke-linecap="butt" transform="matrix(0.00000000223141, -1.278505, 1.278505, 0.00000000223141, 466.530487, 755.028918)" fill="none" stroke-linejoin="miter" d="M 0.00123134 6.499274 L 281.674739 6.499274 " stroke="#02577a" stroke-width="13" stroke-opacity="1" stroke-miterlimit="4"/><path stroke-linecap="butt" transform="matrix(0.00000000223141, -1.278505, 1.278505, 0.00000000223141, 338.690908, 755.028918)" fill="none" stroke-linejoin="miter" d="M 0.00123134 6.499067 L 281.674739 6.499067 " stroke="#02577a" stroke-width="13" stroke-opacity="1" stroke-miterlimit="4"/><path stroke-linecap="round" transform="matrix(-1.278505, 0, 0, -1.278505, 584.786641, 411.528887)" fill="none" stroke-linejoin="miter" d="M 6.499838 6.499885 L 83.753742 6.499885 " stroke="#02577a" stroke-width="13" stroke-opacity="1" stroke-miterlimit="4"/><path stroke-linecap="round" transform="matrix(-1.278505, 0, 0, -1.278505, 352.153407, 411.528887)" fill="none" stroke-linejoin="miter" d="M 6.499509 6.499885 L 83.9184 6.499885 " stroke="#02577a" stroke-width="13" stroke-opacity="1" stroke-miterlimit="4"/><g clip-path="url(#6a7c4a2ed8)"><g clip-path="url(#2a5262a083)"><g clip-path="url(#0d06196802)"><path fill="#02577a" d="M 534.976562 147.046875 C 535.195312 147.566406 535.324219 148.125 535.367188 148.71875 C 535.40625 149.308594 535.355469 149.9375 535.21875 150.59375 C 535.078125 151.253906 534.851562 151.945312 534.535156 152.664062 C 534.21875 153.382812 533.8125 154.128906 533.320312 154.902344 C 532.828125 155.675781 532.253906 156.46875 531.59375 157.289062 C 530.929688 158.109375 530.1875 158.945312 529.363281 159.800781 C 528.535156 160.660156 527.632812 161.53125 526.652344 162.417969 C 525.671875 163.300781 524.617188 164.199219 523.492188 165.105469 C 522.363281 166.015625 521.167969 166.929688 519.90625 167.847656 C 518.644531 168.769531 517.320312 169.691406 515.933594 170.613281 C 514.546875 171.535156 513.105469 172.457031 511.613281 173.375 C 510.117188 174.292969 508.574219 175.207031 506.980469 176.109375 C 505.390625 177.011719 503.757812 177.90625 502.085938 178.785156 C 500.414062 179.667969 498.710938 180.535156 496.976562 181.382812 C 495.242188 182.234375 493.480469 183.0625 491.699219 183.875 C 489.917969 184.683594 488.117188 185.472656 486.304688 186.234375 C 484.492188 186.996094 482.671875 187.730469 480.847656 188.441406 C 479.023438 189.148438 477.199219 189.828125 475.378906 190.472656 C 473.554688 191.121094 471.746094 191.734375 469.949219 192.3125 C 468.148438 192.890625 466.371094 193.433594 464.613281 193.9375 C 462.851562 194.445312 461.121094 194.910156 459.421875 195.339844 C 457.71875 195.765625 456.054688 196.152344 454.421875 196.5 C 452.792969 196.84375 451.210938 197.144531 449.667969 197.40625 C 448.128906 197.664062 446.640625 197.882812 445.203125 198.050781 C 443.765625 198.222656 442.386719 198.351562 441.070312 198.433594 C 439.75 198.515625 438.496094 198.550781 437.304688 198.542969 C 436.117188 198.53125 434.996094 198.480469 433.949219 198.378906 C 432.902344 198.28125 431.929688 198.136719 431.035156 197.949219 C 430.136719 197.757812 429.320312 197.527344 428.585938 197.25 C 427.851562 196.972656 427.199219 196.652344 426.628906 196.292969 C 426.0625 195.929688 425.578125 195.527344 425.183594 195.085938 C 424.789062 194.640625 424.480469 194.160156 424.261719 193.640625 C 424.042969 193.121094 423.914062 192.5625 423.871094 191.96875 C 423.832031 191.378906 423.882812 190.75 424.019531 190.09375 C 424.160156 189.433594 424.386719 188.742188 424.703125 188.023438 C 425.019531 187.304688 425.425781 186.558594 425.917969 185.785156 C 426.40625 185.011719 426.984375 184.21875 427.644531 183.398438 C 428.308594 182.582031 429.050781 181.742188 429.875 180.886719 C 430.699219 180.03125 431.605469 179.15625 432.585938 178.273438 C 433.566406 177.386719 434.621094 176.488281 435.746094 175.582031 C 436.875 174.671875 438.070312 173.761719 439.332031 172.839844 C 440.59375 171.921875 441.917969 171 443.304688 170.074219 C 444.691406 169.152344 446.128906 168.230469 447.625 167.3125 C 449.121094 166.394531 450.664062 165.484375 452.257812 164.578125 C 453.847656 163.675781 455.480469 162.78125 457.148438 161.902344 C 458.820312 161.019531 460.523438 160.15625 462.261719 159.304688 C 463.996094 158.453125 465.753906 157.625 467.539062 156.8125 C 469.320312 156.003906 471.117188 155.21875 472.933594 154.453125 C 474.746094 153.691406 476.5625 152.957031 478.390625 152.246094 C 480.214844 151.539062 482.039062 150.863281 483.859375 150.214844 C 485.679688 149.566406 487.492188 148.953125 489.289062 148.375 C 491.085938 147.796875 492.867188 147.253906 494.625 146.75 C 496.382812 146.242188 498.113281 145.777344 499.816406 145.347656 C 501.519531 144.921875 503.183594 144.535156 504.8125 144.191406 C 506.441406 143.84375 508.027344 143.542969 509.566406 143.28125 C 511.109375 143.023438 512.597656 142.808594 514.035156 142.636719 C 515.472656 142.464844 516.847656 142.335938 518.167969 142.253906 C 519.488281 142.171875 520.742188 142.136719 521.933594 142.144531 C 523.121094 142.15625 524.238281 142.210938 525.289062 142.308594 C 526.335938 142.40625 527.308594 142.550781 528.203125 142.742188 C 529.101562 142.929688 529.914062 143.160156 530.652344 143.4375 C 531.386719 143.714844 532.039062 144.035156 532.609375 144.394531 C 533.175781 144.757812 533.660156 145.160156 534.054688 145.601562 C 534.449219 146.046875 534.757812 146.527344 534.976562 147.046875 Z M 534.976562 147.046875 " fill-opacity="1" fill-rule="nonzero"/></g></g></g><g clip-path="url(#b2c49f3e53)"><g clip-path="url(#70318b3f55)"><g clip-path="url(#6957218092)"><path fill="#02577a" d="M 534.976562 225.449219 C 535.195312 225.96875 535.324219 226.527344 535.367188 227.117188 C 535.40625 227.710938 535.355469 228.335938 535.21875 228.996094 C 535.078125 229.65625 534.851562 230.34375 534.535156 231.066406 C 534.21875 231.785156 533.8125 232.53125 533.320312 233.304688 C 532.828125 234.074219 532.253906 234.871094 531.59375 235.691406 C 530.929688 236.507812 530.1875 237.347656 529.363281 238.203125 C 528.535156 239.058594 527.632812 239.929688 526.652344 240.816406 C 525.671875 241.703125 524.617188 242.601562 523.492188 243.507812 C 522.363281 244.414062 521.167969 245.328125 519.90625 246.25 C 518.644531 247.167969 517.320312 248.089844 515.933594 249.015625 C 514.546875 249.9375 513.105469 250.859375 511.613281 251.777344 C 510.117188 252.695312 508.574219 253.605469 506.980469 254.511719 C 505.390625 255.414062 503.757812 256.308594 502.085938 257.1875 C 500.414062 258.070312 498.710938 258.933594 496.976562 259.785156 C 495.242188 260.636719 493.480469 261.464844 491.699219 262.273438 C 489.917969 263.085938 488.117188 263.871094 486.304688 264.636719 C 484.492188 265.398438 482.671875 266.132812 480.847656 266.84375 C 479.023438 267.550781 477.199219 268.226562 475.378906 268.875 C 473.554688 269.519531 471.746094 270.132812 469.949219 270.714844 C 468.148438 271.292969 466.371094 271.835938 464.613281 272.339844 C 462.851562 272.847656 461.121094 273.3125 459.421875 273.742188 C 457.71875 274.167969 456.054688 274.554688 454.421875 274.898438 C 452.792969 275.246094 451.210938 275.546875 449.667969 275.808594 C 448.128906 276.066406 446.640625 276.28125 445.203125 276.453125 C 443.765625 276.625 442.386719 276.753906 441.070312 276.832031 C 439.75 276.914062 438.496094 276.953125 437.304688 276.941406 C 436.117188 276.933594 434.996094 276.878906 433.949219 276.78125 C 432.902344 276.683594 431.929688 276.539062 431.035156 276.347656 C 430.136719 276.160156 429.320312 275.925781 428.585938 275.652344 C 427.851562 275.375 427.199219 275.054688 426.628906 274.695312 C 426.0625 274.332031 425.578125 273.929688 425.183594 273.488281 C 424.789062 273.042969 424.480469 272.5625 424.261719 272.042969 C 424.042969 271.519531 423.914062 270.964844 423.871094 270.371094 C 423.832031 269.777344 423.882812 269.152344 424.019531 268.492188 C 424.160156 267.835938 424.386719 267.144531 424.703125 266.425781 C 425.019531 265.707031 425.425781 264.960938 425.917969 264.1875 C 426.40625 263.414062 426.984375 262.617188 427.644531 261.800781 C 428.308594 260.980469 429.050781 260.144531 429.875 259.289062 C 430.699219 258.429688 431.605469 257.558594 432.585938 256.671875 C 433.566406 255.785156 434.621094 254.890625 435.746094 253.984375 C 436.875 253.074219 438.070312 252.160156 439.332031 251.242188 C 440.59375 250.320312 441.917969 249.398438 443.304688 248.476562 C 444.691406 247.550781 446.128906 246.632812 447.625 245.714844 C 449.121094 244.796875 450.664062 243.882812 452.257812 242.980469 C 453.847656 242.078125 455.480469 241.183594 457.148438 240.300781 C 458.820312 239.421875 460.523438 238.554688 462.261719 237.707031 C 463.996094 236.855469 465.753906 236.027344 467.539062 235.214844 C 469.320312 234.40625 471.117188 233.617188 472.933594 232.855469 C 474.746094 232.09375 476.5625 231.355469 478.390625 230.648438 C 480.214844 229.941406 482.039062 229.261719 483.859375 228.617188 C 485.679688 227.96875 487.492188 227.355469 489.289062 226.777344 C 491.085938 226.199219 492.867188 225.65625 494.625 225.148438 C 496.382812 224.644531 498.113281 224.179688 499.816406 223.75 C 501.519531 223.324219 503.183594 222.9375 504.8125 222.589844 C 506.441406 222.246094 508.027344 221.941406 509.566406 221.683594 C 511.109375 221.425781 512.597656 221.207031 514.035156 221.035156 C 515.472656 220.867188 516.847656 220.738281 518.167969 220.65625 C 519.488281 220.574219 520.742188 220.539062 521.933594 220.546875 C 523.121094 220.554688 524.238281 220.609375 525.289062 220.710938 C 526.335938 220.808594 527.308594 220.953125 528.203125 221.140625 C 529.101562 221.332031 529.914062 221.5625 530.652344 221.839844 C 531.386719 222.117188 532.039062 222.433594 532.609375 222.796875 C 533.175781 223.160156 533.660156 223.5625 534.054688 224.003906 C 534.449219 224.445312 534.757812 224.929688 534.976562 225.449219 Z M 534.976562 225.449219 " fill-opacity="1" fill-rule="nonzero"/></g></g></g><g clip-path="url(#1f1e9d2083)"><g clip-path="url(#f40baa4f98)"><g clip-path="url(#6579e2121e)"><path fill="#02577a" d="M 534.976562 295.410156 C 535.195312 295.929688 535.324219 296.488281 535.367188 297.078125 C 535.40625 297.671875 535.355469 298.296875 535.21875 298.957031 C 535.078125 299.617188 534.851562 300.304688 534.535156 301.027344 C 534.21875 301.746094 533.8125 302.492188 533.320312 303.265625 C 532.828125 304.035156 532.253906 304.832031 531.59375 305.652344 C 530.929688 306.46875 530.1875 307.308594 529.363281 308.164062 C 528.535156 309.019531 527.632812 309.890625 526.652344 310.777344 C 525.671875 311.664062 524.617188 312.5625 523.492188 313.46875 C 522.363281 314.375 521.167969 315.289062 519.90625 316.210938 C 518.644531 317.128906 517.320312 318.050781 515.933594 318.976562 C 514.546875 319.898438 513.105469 320.820312 511.613281 321.738281 C 510.117188 322.65625 508.574219 323.566406 506.980469 324.472656 C 505.390625 325.375 503.757812 326.269531 502.085938 327.148438 C 500.414062 328.03125 498.710938 328.894531 496.976562 329.746094 C 495.242188 330.597656 493.480469 331.425781 491.699219 332.234375 C 489.917969 333.046875 488.117188 333.832031 486.304688 334.597656 C 484.492188 335.359375 482.671875 336.09375 480.847656 336.804688 C 479.023438 337.511719 477.199219 338.1875 475.378906 338.835938 C 473.554688 339.480469 471.746094 340.09375 469.949219 340.675781 C 468.148438 341.253906 466.371094 341.796875 464.613281 342.300781 C 462.851562 342.808594 461.121094 343.273438 459.421875 343.703125 C 457.71875 344.128906 456.054688 344.515625 454.421875 344.859375 C 452.792969 345.207031 451.210938 345.507812 449.667969 345.769531 C 448.128906 346.027344 446.640625 346.242188 445.203125 346.414062 C 443.765625 346.585938 442.386719 346.714844 441.070312 346.792969 C 439.75 346.875 438.496094 346.914062 437.304688 346.902344 C 436.117188 346.894531 434.996094 346.839844 433.949219 346.742188 C 432.902344 346.644531 431.929688 346.5 431.035156 346.308594 C 430.136719 346.121094 429.320312 345.886719 428.585938 345.613281 C 427.851562 345.335938 427.199219 345.015625 426.628906 344.65625 C 426.0625 344.292969 425.578125 343.890625 425.183594 343.449219 C 424.789062 343.003906 424.480469 342.523438 424.261719 342.003906 C 424.042969 341.480469 423.914062 340.925781 423.871094 340.332031 C 423.832031 339.738281 423.882812 339.113281 424.019531 338.453125 C 424.160156 337.796875 424.386719 337.105469 424.703125 336.386719 C 425.019531 335.667969 425.425781 334.921875 425.917969 334.148438 C 426.40625 333.375 426.984375 332.578125 427.644531 331.761719 C 428.308594 330.941406 429.050781 330.105469 429.875 329.25 C 430.699219 328.390625 431.605469 327.519531 432.585938 326.632812 C 433.566406 325.746094 434.621094 324.851562 435.746094 323.945312 C 436.875 323.035156 438.070312 322.121094 439.332031 321.203125 C 440.59375 320.28125 441.917969 319.359375 443.304688 318.4375 C 444.691406 317.511719 446.128906 316.59375 447.625 315.675781 C 449.121094 314.757812 450.664062 313.84375 452.257812 312.941406 C 453.847656 312.039062 455.480469 311.144531 457.148438 310.261719 C 458.820312 309.382812 460.523438 308.515625 462.261719 307.667969 C 463.996094 306.816406 465.753906 305.988281 467.539062 305.175781 C 469.320312 304.367188 471.117188 303.578125 472.933594 302.816406 C 474.746094 302.054688 476.5625 301.316406 478.390625 300.609375 C 480.214844 299.902344 482.039062 299.222656 483.859375 298.578125 C 485.679688 297.929688 487.492188 297.316406 489.289062 296.738281 C 491.085938 296.160156 492.867188 295.617188 494.625 295.109375 C 496.382812 294.605469 498.113281 294.140625 499.816406 293.710938 C 501.519531 293.285156 503.183594 292.898438 504.8125 292.550781 C 506.441406 292.207031 508.027344 291.902344 509.566406 291.644531 C 511.109375 291.386719 512.597656 291.167969 514.035156 290.996094 C 515.472656 290.828125 516.847656 290.699219 518.167969 290.617188 C 519.488281 290.535156 520.742188 290.5 521.933594 290.507812 C 523.121094 290.515625 524.238281 290.570312 525.289062 290.671875 C 526.335938 290.769531 527.308594 290.914062 528.203125 291.101562 C 529.101562 291.292969 529.914062 291.523438 530.652344 291.800781 C 531.386719 292.078125 532.039062 292.394531 532.609375 292.757812 C 533.175781 293.121094 533.660156 293.523438 534.054688 293.964844 C 534.449219 294.40625 534.757812 294.890625 534.976562 295.410156 Z M 534.976562 295.410156 " fill-opacity="1" fill-rule="nonzero"/></g></g></g><g clip-path="url(#1e96a16bea)"><g clip-path="url(#26a1c4c156)"><g clip-path="url(#6dcd7a11dd)"><path fill="#02577a" d="M 284.601562 147.039062 C 284.382812 147.558594 284.253906 148.117188 284.210938 148.707031 C 284.171875 149.300781 284.21875 149.925781 284.359375 150.585938 C 284.496094 151.246094 284.722656 151.9375 285.039062 152.65625 C 285.355469 153.375 285.757812 154.121094 286.25 154.894531 C 286.738281 155.667969 287.3125 156.464844 287.976562 157.285156 C 288.636719 158.105469 289.378906 158.941406 290.203125 159.800781 C 291.027344 160.65625 291.929688 161.53125 292.90625 162.417969 C 293.886719 163.304688 294.941406 164.203125 296.066406 165.113281 C 297.191406 166.023438 298.386719 166.9375 299.648438 167.859375 C 300.910156 168.78125 302.230469 169.703125 303.617188 170.628906 C 305 171.554688 306.441406 172.476562 307.933594 173.398438 C 309.429688 174.316406 310.972656 175.230469 312.5625 176.136719 C 314.152344 177.042969 315.78125 177.9375 317.453125 178.820312 C 319.125 179.703125 320.824219 180.570312 322.558594 181.421875 C 324.292969 182.273438 326.050781 183.105469 327.835938 183.917969 C 329.617188 184.730469 331.414062 185.519531 333.226562 186.285156 C 335.039062 187.050781 336.855469 187.789062 338.679688 188.5 C 340.503906 189.210938 342.328125 189.890625 344.148438 190.539062 C 345.96875 191.1875 347.777344 191.804688 349.574219 192.382812 C 351.371094 192.964844 353.152344 193.511719 354.910156 194.019531 C 356.667969 194.527344 358.398438 194.996094 360.097656 195.425781 C 361.800781 195.855469 363.464844 196.242188 365.09375 196.589844 C 366.722656 196.9375 368.308594 197.242188 369.847656 197.503906 C 371.386719 197.765625 372.875 197.984375 374.3125 198.15625 C 375.75 198.328125 377.128906 198.457031 378.445312 198.542969 C 379.765625 198.625 381.019531 198.664062 382.210938 198.65625 C 383.398438 198.648438 384.519531 198.59375 385.566406 198.496094 C 386.613281 198.398438 387.585938 198.257812 388.480469 198.070312 C 389.378906 197.882812 390.195312 197.648438 390.929688 197.375 C 391.667969 197.097656 392.320312 196.78125 392.890625 196.417969 C 393.457031 196.058594 393.941406 195.65625 394.335938 195.214844 C 394.734375 194.769531 395.039062 194.289062 395.261719 193.769531 C 395.480469 193.25 395.609375 192.691406 395.652344 192.101562 C 395.691406 191.507812 395.644531 190.882812 395.503906 190.222656 C 395.367188 189.5625 395.140625 188.875 394.824219 188.152344 C 394.507812 187.433594 394.105469 186.6875 393.617188 185.914062 C 393.125 185.140625 392.550781 184.34375 391.890625 183.523438 C 391.226562 182.703125 390.484375 181.867188 389.660156 181.007812 C 388.835938 180.152344 387.9375 179.277344 386.957031 178.390625 C 385.976562 177.503906 384.921875 176.605469 383.796875 175.695312 C 382.671875 174.789062 381.476562 173.871094 380.214844 172.949219 C 378.953125 172.027344 377.632812 171.105469 376.246094 170.179688 C 374.863281 169.253906 373.421875 168.332031 371.929688 167.414062 C 370.433594 166.492188 368.890625 165.578125 367.300781 164.671875 C 365.710938 163.765625 364.082031 162.871094 362.410156 161.988281 C 360.742188 161.105469 359.039062 160.238281 357.304688 159.386719 C 355.570312 158.535156 353.8125 157.703125 352.03125 156.890625 C 350.246094 156.078125 348.449219 155.289062 346.636719 154.523438 C 344.828125 153.757812 343.007812 153.019531 341.183594 152.308594 C 339.359375 151.597656 337.535156 150.917969 335.714844 150.269531 C 333.894531 149.621094 332.085938 149.007812 330.289062 148.425781 C 328.492188 147.84375 326.710938 147.296875 324.953125 146.789062 C 323.195312 146.28125 321.464844 145.8125 319.765625 145.382812 C 318.0625 144.953125 316.398438 144.566406 314.769531 144.21875 C 313.140625 143.871094 311.554688 143.566406 310.015625 143.304688 C 308.476562 143.042969 306.988281 142.828125 305.550781 142.652344 C 304.113281 142.480469 302.734375 142.351562 301.417969 142.269531 C 300.097656 142.183594 298.84375 142.148438 297.652344 142.152344 C 296.464844 142.160156 295.347656 142.214844 294.296875 142.3125 C 293.25 142.410156 292.277344 142.554688 291.382812 142.742188 C 290.484375 142.929688 289.667969 143.160156 288.933594 143.4375 C 288.195312 143.710938 287.542969 144.03125 286.976562 144.390625 C 286.40625 144.75 285.921875 145.152344 285.527344 145.59375 C 285.128906 146.039062 284.824219 146.519531 284.601562 147.039062 Z M 284.601562 147.039062 " fill-opacity="1" fill-rule="nonzero"/></g></g></g><g clip-path="url(#01955a35cc)"><g clip-path="url(#03389216e2)"><g clip-path="url(#797a8f4c30)"><path fill="#02577a" d="M 284.613281 225.378906 C 284.394531 225.902344 284.261719 226.457031 284.222656 227.050781 C 284.179688 227.640625 284.230469 228.269531 284.367188 228.925781 C 284.503906 229.585938 284.730469 230.277344 285.046875 230.996094 C 285.363281 231.714844 285.765625 232.464844 286.257812 233.238281 C 286.75 234.011719 287.324219 234.804688 287.984375 235.625 C 288.644531 236.445312 289.386719 237.285156 290.210938 238.140625 C 291.035156 239 291.9375 239.871094 292.917969 240.757812 C 293.898438 241.648438 294.949219 242.542969 296.074219 243.453125 C 297.203125 244.363281 298.394531 245.277344 299.65625 246.199219 C 300.917969 247.121094 302.242188 248.042969 303.625 248.96875 C 305.011719 249.894531 306.449219 250.816406 307.945312 251.738281 C 309.4375 252.65625 310.980469 253.570312 312.570312 254.476562 C 314.160156 255.382812 315.792969 256.277344 317.460938 257.160156 C 319.132812 258.042969 320.835938 258.910156 322.570312 259.761719 C 324.304688 260.617188 326.0625 261.449219 327.84375 262.261719 C 329.625 263.074219 331.421875 263.863281 333.234375 264.625 C 335.046875 265.390625 336.863281 266.128906 338.691406 266.839844 C 340.515625 267.550781 342.335938 268.230469 344.15625 268.878906 C 345.976562 269.527344 347.785156 270.144531 349.585938 270.726562 C 351.382812 271.308594 353.160156 271.851562 354.917969 272.359375 C 356.675781 272.867188 358.40625 273.335938 360.109375 273.765625 C 361.808594 274.195312 363.476562 274.582031 365.105469 274.929688 C 366.730469 275.277344 368.316406 275.582031 369.855469 275.84375 C 371.398438 276.105469 372.886719 276.324219 374.320312 276.496094 C 375.757812 276.671875 377.136719 276.796875 378.457031 276.882812 C 379.777344 276.964844 381.03125 277.003906 382.21875 276.996094 C 383.410156 276.988281 384.527344 276.9375 385.574219 276.839844 C 386.621094 276.738281 387.59375 276.597656 388.492188 276.410156 C 389.386719 276.222656 390.203125 275.988281 390.941406 275.714844 C 391.675781 275.4375 392.328125 275.121094 392.898438 274.757812 C 393.46875 274.398438 393.949219 273.996094 394.347656 273.554688 C 394.742188 273.113281 395.050781 272.628906 395.269531 272.109375 C 395.488281 271.589844 395.621094 271.035156 395.660156 270.441406 C 395.703125 269.847656 395.652344 269.222656 395.515625 268.5625 C 395.375 267.902344 395.148438 267.214844 394.835938 266.496094 C 394.519531 265.773438 394.113281 265.027344 393.625 264.253906 C 393.132812 263.480469 392.558594 262.683594 391.898438 261.863281 C 391.238281 261.046875 390.496094 260.207031 389.671875 259.347656 C 388.847656 258.492188 387.945312 257.621094 386.964844 256.730469 C 385.984375 255.84375 384.933594 254.945312 383.804688 254.039062 C 382.679688 253.128906 381.488281 252.214844 380.226562 251.292969 C 378.964844 250.371094 377.640625 249.445312 376.257812 248.519531 C 374.871094 247.597656 373.433594 246.671875 371.9375 245.753906 C 370.441406 244.832031 368.902344 243.921875 367.3125 243.015625 C 365.71875 242.109375 364.089844 241.214844 362.421875 240.332031 C 360.75 239.445312 359.046875 238.578125 357.3125 237.726562 C 355.578125 236.875 353.820312 236.042969 352.039062 235.230469 C 350.257812 234.417969 348.460938 233.628906 346.648438 232.863281 C 344.835938 232.097656 343.015625 231.359375 341.191406 230.648438 C 339.367188 229.941406 337.542969 229.261719 335.726562 228.609375 C 333.90625 227.960938 332.097656 227.347656 330.296875 226.765625 C 328.5 226.183594 326.722656 225.640625 324.964844 225.132812 C 323.207031 224.625 321.476562 224.15625 319.773438 223.726562 C 318.074219 223.296875 316.40625 222.90625 314.777344 222.558594 C 313.148438 222.210938 311.566406 221.90625 310.023438 221.644531 C 308.484375 221.382812 306.996094 221.167969 305.558594 220.992188 C 304.125 220.820312 302.746094 220.691406 301.425781 220.609375 C 300.105469 220.527344 298.851562 220.488281 297.664062 220.496094 C 296.472656 220.503906 295.355469 220.554688 294.308594 220.652344 C 293.257812 220.75 292.285156 220.894531 291.390625 221.082031 C 290.496094 221.269531 289.679688 221.5 288.941406 221.777344 C 288.207031 222.050781 287.554688 222.371094 286.984375 222.730469 C 286.414062 223.09375 285.933594 223.492188 285.535156 223.9375 C 285.140625 224.378906 284.832031 224.859375 284.613281 225.378906 Z M 284.613281 225.378906 " fill-opacity="1" fill-rule="nonzero"/></g></g></g><g clip-path="url(#20ed47bdb3)"><g clip-path="url(#34ae061348)"><g clip-path="url(#76999eea00)"><path fill="#02577a" d="M 284.613281 295.339844 C 284.394531 295.863281 284.261719 296.417969 284.222656 297.011719 C 284.179688 297.601562 284.230469 298.230469 284.367188 298.886719 C 284.503906 299.546875 284.730469 300.238281 285.046875 300.957031 C 285.363281 301.675781 285.765625 302.425781 286.257812 303.199219 C 286.75 303.972656 287.324219 304.765625 287.984375 305.585938 C 288.644531 306.40625 289.386719 307.246094 290.210938 308.101562 C 291.035156 308.960938 291.9375 309.832031 292.917969 310.71875 C 293.898438 311.609375 294.949219 312.503906 296.074219 313.414062 C 297.203125 314.324219 298.394531 315.238281 299.65625 316.160156 C 300.917969 317.082031 302.242188 318.003906 303.625 318.929688 C 305.011719 319.855469 306.449219 320.777344 307.945312 321.699219 C 309.4375 322.617188 310.980469 323.53125 312.570312 324.4375 C 314.160156 325.34375 315.792969 326.238281 317.460938 327.121094 C 319.132812 328.003906 320.835938 328.871094 322.570312 329.722656 C 324.304688 330.578125 326.0625 331.410156 327.84375 332.222656 C 329.625 333.035156 331.421875 333.824219 333.234375 334.585938 C 335.046875 335.351562 336.863281 336.089844 338.691406 336.800781 C 340.515625 337.511719 342.335938 338.191406 344.15625 338.839844 C 345.976562 339.488281 347.785156 340.105469 349.585938 340.6875 C 351.382812 341.269531 353.160156 341.8125 354.917969 342.320312 C 356.675781 342.828125 358.40625 343.296875 360.109375 343.726562 C 361.808594 344.15625 363.476562 344.542969 365.105469 344.890625 C 366.730469 345.238281 368.316406 345.542969 369.855469 345.804688 C 371.398438 346.066406 372.886719 346.285156 374.320312 346.457031 C 375.757812 346.632812 377.136719 346.757812 378.457031 346.84375 C 379.777344 346.925781 381.03125 346.964844 382.21875 346.957031 C 383.410156 346.949219 384.527344 346.898438 385.574219 346.796875 C 386.621094 346.699219 387.59375 346.558594 388.492188 346.371094 C 389.386719 346.183594 390.203125 345.949219 390.941406 345.675781 C 391.675781 345.398438 392.328125 345.082031 392.898438 344.71875 C 393.46875 344.359375 393.949219 343.957031 394.347656 343.515625 C 394.742188 343.074219 395.050781 342.589844 395.269531 342.070312 C 395.488281 341.550781 395.621094 340.996094 395.660156 340.402344 C 395.703125 339.808594 395.652344 339.183594 395.515625 338.523438 C 395.375 337.863281 395.148438 337.175781 394.835938 336.453125 C 394.519531 335.734375 394.113281 334.988281 393.625 334.214844 C 393.132812 333.441406 392.558594 332.644531 391.898438 331.824219 C 391.238281 331.007812 390.496094 330.167969 389.671875 329.308594 C 388.847656 328.453125 387.945312 327.582031 386.964844 326.691406 C 385.984375 325.804688 384.933594 324.90625 383.804688 323.996094 C 382.679688 323.089844 381.488281 322.175781 380.226562 321.253906 C 378.964844 320.332031 377.640625 319.40625 376.257812 318.480469 C 374.871094 317.558594 373.433594 316.632812 371.9375 315.714844 C 370.441406 314.792969 368.902344 313.882812 367.3125 312.976562 C 365.71875 312.070312 364.089844 311.175781 362.421875 310.292969 C 360.75 309.40625 359.046875 308.539062 357.3125 307.6875 C 355.578125 306.835938 353.820312 306.003906 352.039062 305.191406 C 350.257812 304.378906 348.460938 303.589844 346.648438 302.824219 C 344.835938 302.058594 343.015625 301.320312 341.191406 300.609375 C 339.367188 299.902344 337.542969 299.222656 335.726562 298.570312 C 333.90625 297.921875 332.097656 297.308594 330.296875 296.726562 C 328.5 296.144531 326.722656 295.601562 324.964844 295.09375 C 323.207031 294.585938 321.476562 294.117188 319.773438 293.6875 C 318.074219 293.257812 316.40625 292.867188 314.777344 292.519531 C 313.148438 292.171875 311.566406 291.867188 310.023438 291.605469 C 308.484375 291.34375 306.996094 291.128906 305.558594 290.953125 C 304.125 290.78125 302.746094 290.652344 301.425781 290.570312 C 300.105469 290.488281 298.851562 290.449219 297.664062 290.457031 C 296.472656 290.464844 295.355469 290.515625 294.308594 290.613281 C 293.257812 290.710938 292.285156 290.855469 291.390625 291.042969 C 290.496094 291.230469 289.679688 291.460938 288.941406 291.738281 C 288.207031 292.011719 287.554688 292.332031 286.984375 292.691406 C 286.414062 293.054688 285.933594 293.453125 285.535156 293.898438 C 285.140625 294.339844 284.832031 294.820312 284.613281 295.339844 Z M 284.613281 295.339844 " fill-opacity="1" fill-rule="nonzero"/></g></g></g><g fill="#02577a" fill-opacity="1"><g transform="translate(585.211616, 564.688288)"><g><path d="M 15.296875 0 L 15.296875 -94.765625 L 1.359375 -94.765625 L 1.359375 -117.296875 L 52.703125 -117.296875 L 52.703125 -94.765625 L 38.78125 -94.765625 L 38.78125 0 Z M 15.296875 0 "/></g></g></g><g fill="#02577a" fill-opacity="1"><g transform="translate(639.279545, 564.688288)"><g><path d="M 5.1875 0 L 5.1875 -117.296875 L 52.15625 -117.296875 L 52.15625 -94.625 L 29.078125 -94.625 L 29.078125 -71.828125 L 51.203125 -71.828125 L 51.203125 -49.703125 L 29.078125 -49.703125 L 29.078125 -22.796875 L 53.65625 -22.796875 L 53.65625 0 Z M 5.1875 0 "/></g></g></g><g fill="#02577a" fill-opacity="1"><g transform="translate(695.532036, 564.688288)"><g><path d="M 32.5 1.09375 C 23.9375 1.09375 17.082031 -1.585938 11.9375 -6.953125 C 6.800781 -12.328125 4.234375 -19.703125 4.234375 -29.078125 L 4.234375 -83.15625 C 4.234375 -94.8125 6.550781 -103.597656 11.1875 -109.515625 C 15.832031 -115.429688 23.117188 -118.390625 33.046875 -118.390625 C 41.691406 -118.390625 48.65625 -116.019531 53.9375 -111.28125 C 59.21875 -106.550781 61.859375 -99.722656 61.859375 -90.796875 L 61.859375 -70.59375 L 38.5 -70.59375 L 38.5 -87.9375 C 38.5 -91.300781 38.085938 -93.617188 37.265625 -94.890625 C 36.453125 -96.171875 35.046875 -96.8125 33.046875 -96.8125 C 30.953125 -96.8125 29.515625 -96.082031 28.734375 -94.625 C 27.960938 -93.164062 27.578125 -91.023438 27.578125 -88.203125 L 27.578125 -29.359375 C 27.578125 -26.265625 28.03125 -24.007812 28.9375 -22.59375 C 29.851562 -21.1875 31.222656 -20.484375 33.046875 -20.484375 C 36.679688 -20.484375 38.5 -23.441406 38.5 -29.359375 L 38.5 -50.515625 L 62.125 -50.515625 L 62.125 -28.40625 C 62.125 -8.738281 52.25 1.09375 32.5 1.09375 Z M 32.5 1.09375 "/></g></g></g><g fill="#02577a" fill-opacity="1"><g transform="translate(760.2497, 564.688288)"><g><path d="M 5.1875 0 L 5.1875 -117.296875 L 28.53125 -117.296875 L 28.53125 -75.375 L 39.59375 -75.375 L 39.59375 -117.296875 L 62.953125 -117.296875 L 62.953125 0 L 39.59375 0 L 39.59375 -53.25 L 28.53125 -53.25 L 28.53125 0 Z M 5.1875 0 "/></g></g></g><g fill="#02577a" fill-opacity="1"><g transform="translate(828.380746, 564.688288)"><g><path d="M 5.1875 0 L 5.1875 -117.296875 L 29.359375 -117.296875 L 40.140625 -61.171875 L 40.140625 -117.296875 L 62.8125 -117.296875 L 62.8125 0 L 39.875 0 L 28.125 -58.71875 L 28.125 0 Z M 5.1875 0 "/></g></g></g><g fill="#02577a" fill-opacity="1"><g transform="translate(896.375265, 564.688288)"><g><path d="M 33.1875 1.09375 C 23.71875 1.09375 16.523438 -1.796875 11.609375 -7.578125 C 6.691406 -13.359375 4.234375 -21.484375 4.234375 -31.953125 L 4.234375 -87.796875 C 4.234375 -97.898438 6.691406 -105.523438 11.609375 -110.671875 C 16.523438 -115.816406 23.71875 -118.390625 33.1875 -118.390625 C 42.644531 -118.390625 49.832031 -115.816406 54.75 -110.671875 C 59.664062 -105.523438 62.125 -97.898438 62.125 -87.796875 L 62.125 -31.953125 C 62.125 -21.390625 59.664062 -13.238281 54.75 -7.5 C 49.832031 -1.769531 42.644531 1.09375 33.1875 1.09375 Z M 33.1875 -20.484375 C 35.28125 -20.484375 36.6875 -21.390625 37.40625 -23.203125 C 38.132812 -25.023438 38.5 -27.578125 38.5 -30.859375 L 38.5 -88.203125 C 38.5 -90.753906 38.15625 -92.828125 37.46875 -94.421875 C 36.789062 -96.015625 35.40625 -96.8125 33.3125 -96.8125 C 29.40625 -96.8125 27.453125 -93.851562 27.453125 -87.9375 L 27.453125 -30.71875 C 27.453125 -27.351562 27.859375 -24.804688 28.671875 -23.078125 C 29.492188 -21.347656 31 -20.484375 33.1875 -20.484375 Z M 33.1875 -20.484375 "/></g></g></g><g fill="#02577a" fill-opacity="1"><g transform="translate(962.731356, 564.688288)"><g><path d="M 5.1875 0 L 5.1875 -117.296875 L 28.671875 -117.296875 L 28.671875 -19.9375 L 52.84375 -19.9375 L 52.84375 0 Z M 5.1875 0 "/></g></g></g><g fill="#02577a" fill-opacity="1"><g transform="translate(1016.935836, 564.688288)"><g><path d="M 33.1875 1.09375 C 23.71875 1.09375 16.523438 -1.796875 11.609375 -7.578125 C 6.691406 -13.359375 4.234375 -21.484375 4.234375 -31.953125 L 4.234375 -87.796875 C 4.234375 -97.898438 6.691406 -105.523438 11.609375 -110.671875 C 16.523438 -115.816406 23.71875 -118.390625 33.1875 -118.390625 C 42.644531 -118.390625 49.832031 -115.816406 54.75 -110.671875 C 59.664062 -105.523438 62.125 -97.898438 62.125 -87.796875 L 62.125 -31.953125 C 62.125 -21.390625 59.664062 -13.238281 54.75 -7.5 C 49.832031 -1.769531 42.644531 1.09375 33.1875 1.09375 Z M 33.1875 -20.484375 C 35.28125 -20.484375 36.6875 -21.390625 37.40625 -23.203125 C 38.132812 -25.023438 38.5 -27.578125 38.5 -30.859375 L 38.5 -88.203125 C 38.5 -90.753906 38.15625 -92.828125 37.46875 -94.421875 C 36.789062 -96.015625 35.40625 -96.8125 33.3125 -96.8125 C 29.40625 -96.8125 27.453125 -93.851562 27.453125 -87.9375 L 27.453125 -30.71875 C 27.453125 -27.351562 27.859375 -24.804688 28.671875 -23.078125 C 29.492188 -21.347656 31 -20.484375 33.1875 -20.484375 Z M 33.1875 -20.484375 "/></g></g></g><g fill="#02577a" fill-opacity="1"><g transform="translate(1083.291927, 564.688288)"><g><path d="M 29.359375 1.09375 C 20.890625 1.09375 14.582031 -1.882812 10.4375 -7.84375 C 6.300781 -13.8125 4.234375 -22.847656 4.234375 -34.953125 L 4.234375 -85.484375 C 4.234375 -96.316406 6.644531 -104.507812 11.46875 -110.0625 C 16.289062 -115.613281 23.484375 -118.390625 33.046875 -118.390625 C 40.785156 -118.390625 46.789062 -116.835938 51.0625 -113.734375 C 55.34375 -110.640625 58.300781 -106.132812 59.9375 -100.21875 C 61.582031 -94.300781 62.40625 -86.703125 62.40625 -77.421875 L 39.46875 -77.421875 L 39.46875 -87.9375 C 39.46875 -90.757812 39.078125 -92.941406 38.296875 -94.484375 C 37.523438 -96.035156 36.140625 -96.8125 34.140625 -96.8125 C 29.679688 -96.8125 27.453125 -93.898438 27.453125 -88.078125 L 27.453125 -31.265625 C 27.453125 -27.710938 27.90625 -25.023438 28.8125 -23.203125 C 29.71875 -21.390625 31.3125 -20.484375 33.59375 -20.484375 C 35.863281 -20.484375 37.453125 -21.390625 38.359375 -23.203125 C 39.273438 -25.023438 39.734375 -27.710938 39.734375 -31.265625 L 39.734375 -48.0625 L 33.453125 -48.0625 L 33.453125 -68.265625 L 62.125 -68.265625 L 62.125 0 L 52.703125 0 L 48.75 -9.828125 C 44.5625 -2.546875 38.097656 1.09375 29.359375 1.09375 Z M 29.359375 1.09375 "/></g></g></g><g fill="#02577a" fill-opacity="1"><g transform="translate(1149.511467, 564.688288)"><g><path d="M 19.390625 0 L 19.390625 -38.640625 L 0.6875 -117.296875 L 23.890625 -117.296875 L 30.453125 -77.5625 L 37 -117.296875 L 60.21875 -117.296875 L 41.515625 -38.640625 L 41.515625 0 Z M 19.390625 0 "/></g></g></g><g fill="#02577a" fill-opacity="1"><g transform="translate(570.598335, 755.188278)"><g><path d="M 2.046875 0 L 13.375 -117.296875 L 53.109375 -117.296875 L 64.3125 0 L 42.0625 0 L 40.421875 -18.984375 L 26.21875 -18.984375 L 24.84375 0 Z M 27.984375 -37.6875 L 38.640625 -37.6875 L 33.453125 -97.359375 L 32.359375 -97.359375 Z M 27.984375 -37.6875 "/></g></g></g><g fill="#02577a" fill-opacity="1"><g transform="translate(636.817887, 755.188278)"><g><path d="M 33.046875 1.09375 C 22.390625 1.09375 14.695312 -1.546875 9.96875 -6.828125 C 5.238281 -12.109375 2.875 -20.617188 2.875 -32.359375 L 2.875 -43.828125 L 25.9375 -43.828125 L 25.9375 -29.21875 C 25.9375 -23.394531 27.804688 -20.484375 31.546875 -20.484375 C 33.640625 -20.484375 35.09375 -21.097656 35.90625 -22.328125 C 36.726562 -23.554688 37.140625 -25.625 37.140625 -28.53125 C 37.140625 -32.351562 36.679688 -35.515625 35.765625 -38.015625 C 34.859375 -40.523438 33.695312 -42.617188 32.28125 -44.296875 C 30.875 -45.984375 28.351562 -48.601562 24.71875 -52.15625 L 14.609375 -62.265625 C 6.785156 -69.910156 2.875 -78.375 2.875 -87.65625 C 2.875 -97.675781 5.171875 -105.300781 9.765625 -110.53125 C 14.359375 -115.769531 21.070312 -118.390625 29.90625 -118.390625 C 40.46875 -118.390625 48.066406 -115.585938 52.703125 -109.984375 C 57.347656 -104.390625 59.671875 -95.628906 59.671875 -83.703125 L 35.78125 -83.703125 L 35.640625 -91.765625 C 35.640625 -93.304688 35.207031 -94.53125 34.34375 -95.4375 C 33.476562 -96.351562 32.269531 -96.8125 30.71875 -96.8125 C 28.894531 -96.8125 27.53125 -96.3125 26.625 -95.3125 C 25.71875 -94.3125 25.265625 -92.945312 25.265625 -91.21875 C 25.265625 -87.394531 27.445312 -83.429688 31.8125 -79.328125 L 45.46875 -66.21875 C 48.65625 -63.125 51.296875 -60.1875 53.390625 -57.40625 C 55.484375 -54.632812 57.164062 -51.359375 58.4375 -47.578125 C 59.71875 -43.804688 60.359375 -39.328125 60.359375 -34.140625 C 60.359375 -22.578125 58.238281 -13.8125 54 -7.84375 C 49.769531 -1.882812 42.785156 1.09375 33.046875 1.09375 Z M 33.046875 1.09375 "/></g></g></g><g fill="#02577a" fill-opacity="1"><g transform="translate(699.760595, 755.188278)"><g><path d="M 33.046875 1.09375 C 22.390625 1.09375 14.695312 -1.546875 9.96875 -6.828125 C 5.238281 -12.109375 2.875 -20.617188 2.875 -32.359375 L 2.875 -43.828125 L 25.9375 -43.828125 L 25.9375 -29.21875 C 25.9375 -23.394531 27.804688 -20.484375 31.546875 -20.484375 C 33.640625 -20.484375 35.09375 -21.097656 35.90625 -22.328125 C 36.726562 -23.554688 37.140625 -25.625 37.140625 -28.53125 C 37.140625 -32.351562 36.679688 -35.515625 35.765625 -38.015625 C 34.859375 -40.523438 33.695312 -42.617188 32.28125 -44.296875 C 30.875 -45.984375 28.351562 -48.601562 24.71875 -52.15625 L 14.609375 -62.265625 C 6.785156 -69.910156 2.875 -78.375 2.875 -87.65625 C 2.875 -97.675781 5.171875 -105.300781 9.765625 -110.53125 C 14.359375 -115.769531 21.070312 -118.390625 29.90625 -118.390625 C 40.46875 -118.390625 48.066406 -115.585938 52.703125 -109.984375 C 57.347656 -104.390625 59.671875 -95.628906 59.671875 -83.703125 L 35.78125 -83.703125 L 35.640625 -91.765625 C 35.640625 -93.304688 35.207031 -94.53125 34.34375 -95.4375 C 33.476562 -96.351562 32.269531 -96.8125 30.71875 -96.8125 C 28.894531 -96.8125 27.53125 -96.3125 26.625 -95.3125 C 25.71875 -94.3125 25.265625 -92.945312 25.265625 -91.21875 C 25.265625 -87.394531 27.445312 -83.429688 31.8125 -79.328125 L 45.46875 -66.21875 C 48.65625 -63.125 51.296875 -60.1875 53.390625 -57.40625 C 55.484375 -54.632812 57.164062 -51.359375 58.4375 -47.578125 C 59.71875 -43.804688 60.359375 -39.328125 60.359375 -34.140625 C 60.359375 -22.578125 58.238281 -13.8125 54 -7.84375 C 49.769531 -1.882812 42.785156 1.09375 33.046875 1.09375 Z M 33.046875 1.09375 "/></g></g></g><g fill="#02577a" fill-opacity="1"><g transform="translate(762.703291, 755.188278)"><g><path d="M 5.1875 0 L 5.1875 -117.296875 L 52.15625 -117.296875 L 52.15625 -94.625 L 29.078125 -94.625 L 29.078125 -71.828125 L 51.203125 -71.828125 L 51.203125 -49.703125 L 29.078125 -49.703125 L 29.078125 -22.796875 L 53.65625 -22.796875 L 53.65625 0 Z M 5.1875 0 "/></g></g></g><g fill="#02577a" fill-opacity="1"><g transform="translate(818.955783, 755.188278)"><g><path d="M 33.046875 1.09375 C 22.390625 1.09375 14.695312 -1.546875 9.96875 -6.828125 C 5.238281 -12.109375 2.875 -20.617188 2.875 -32.359375 L 2.875 -43.828125 L 25.9375 -43.828125 L 25.9375 -29.21875 C 25.9375 -23.394531 27.804688 -20.484375 31.546875 -20.484375 C 33.640625 -20.484375 35.09375 -21.097656 35.90625 -22.328125 C 36.726562 -23.554688 37.140625 -25.625 37.140625 -28.53125 C 37.140625 -32.351562 36.679688 -35.515625 35.765625 -38.015625 C 34.859375 -40.523438 33.695312 -42.617188 32.28125 -44.296875 C 30.875 -45.984375 28.351562 -48.601562 24.71875 -52.15625 L 14.609375 -62.265625 C 6.785156 -69.910156 2.875 -78.375 2.875 -87.65625 C 2.875 -97.675781 5.171875 -105.300781 9.765625 -110.53125 C 14.359375 -115.769531 21.070312 -118.390625 29.90625 -118.390625 C 40.46875 -118.390625 48.066406 -115.585938 52.703125 -109.984375 C 57.347656 -104.390625 59.671875 -95.628906 59.671875 -83.703125 L 35.78125 -83.703125 L 35.640625 -91.765625 C 35.640625 -93.304688 35.207031 -94.53125 34.34375 -95.4375 C 33.476562 -96.351562 32.269531 -96.8125 30.71875 -96.8125 C 28.894531 -96.8125 27.53125 -96.3125 26.625 -95.3125 C 25.71875 -94.3125 25.265625 -92.945312 25.265625 -91.21875 C 25.265625 -87.394531 27.445312 -83.429688 31.8125 -79.328125 L 45.46875 -66.21875 C 48.65625 -63.125 51.296875 -60.1875 53.390625 -57.40625 C 55.484375 -54.632812 57.164062 -51.359375 58.4375 -47.578125 C 59.71875 -43.804688 60.359375 -39.328125 60.359375 -34.140625 C 60.359375 -22.578125 58.238281 -13.8125 54 -7.84375 C 49.769531 -1.882812 42.785156 1.09375 33.046875 1.09375 Z M 33.046875 1.09375 "/></g></g></g><g fill="#02577a" fill-opacity="1"><g transform="translate(881.898491, 755.188278)"><g><path d="M 33.046875 1.09375 C 22.390625 1.09375 14.695312 -1.546875 9.96875 -6.828125 C 5.238281 -12.109375 2.875 -20.617188 2.875 -32.359375 L 2.875 -43.828125 L 25.9375 -43.828125 L 25.9375 -29.21875 C 25.9375 -23.394531 27.804688 -20.484375 31.546875 -20.484375 C 33.640625 -20.484375 35.09375 -21.097656 35.90625 -22.328125 C 36.726562 -23.554688 37.140625 -25.625 37.140625 -28.53125 C 37.140625 -32.351562 36.679688 -35.515625 35.765625 -38.015625 C 34.859375 -40.523438 33.695312 -42.617188 32.28125 -44.296875 C 30.875 -45.984375 28.351562 -48.601562 24.71875 -52.15625 L 14.609375 -62.265625 C 6.785156 -69.910156 2.875 -78.375 2.875 -87.65625 C 2.875 -97.675781 5.171875 -105.300781 9.765625 -110.53125 C 14.359375 -115.769531 21.070312 -118.390625 29.90625 -118.390625 C 40.46875 -118.390625 48.066406 -115.585938 52.703125 -109.984375 C 57.347656 -104.390625 59.671875 -95.628906 59.671875 -83.703125 L 35.78125 -83.703125 L 35.640625 -91.765625 C 35.640625 -93.304688 35.207031 -94.53125 34.34375 -95.4375 C 33.476562 -96.351562 32.269531 -96.8125 30.71875 -96.8125 C 28.894531 -96.8125 27.53125 -96.3125 26.625 -95.3125 C 25.71875 -94.3125 25.265625 -92.945312 25.265625 -91.21875 C 25.265625 -87.394531 27.445312 -83.429688 31.8125 -79.328125 L 45.46875 -66.21875 C 48.65625 -63.125 51.296875 -60.1875 53.390625 -57.40625 C 55.484375 -54.632812 57.164062 -51.359375 58.4375 -47.578125 C 59.71875 -43.804688 60.359375 -39.328125 60.359375 -34.140625 C 60.359375 -22.578125 58.238281 -13.8125 54 -7.84375 C 49.769531 -1.882812 42.785156 1.09375 33.046875 1.09375 Z M 33.046875 1.09375 "/></g></g></g><g fill="#02577a" fill-opacity="1"><g transform="translate(944.841199, 755.188278)"><g><path d="M 5.1875 0 L 5.1875 -117.296875 L 40.96875 -117.296875 L 50.796875 -45.75 L 60.625 -117.296875 L 96.671875 -117.296875 L 96.671875 0 L 75.234375 0 L 75.234375 -84.515625 L 61.71875 0 L 40.6875 0 L 26.359375 -84.515625 L 26.359375 0 Z M 5.1875 0 "/></g></g></g><g fill="#02577a" fill-opacity="1"><g transform="translate(1046.696426, 755.188278)"><g><path d="M 5.1875 0 L 5.1875 -117.296875 L 52.15625 -117.296875 L 52.15625 -94.625 L 29.078125 -94.625 L 29.078125 -71.828125 L 51.203125 -71.828125 L 51.203125 -49.703125 L 29.078125 -49.703125 L 29.078125 -22.796875 L 53.65625 -22.796875 L 53.65625 0 Z M 5.1875 0 "/></g></g></g><g fill="#02577a" fill-opacity="1"><g transform="translate(1102.948895, 755.188278)"><g><path d="M 5.1875 0 L 5.1875 -117.296875 L 29.359375 -117.296875 L 40.140625 -61.171875 L 40.140625 -117.296875 L 62.8125 -117.296875 L 62.8125 0 L 39.875 0 L 28.125 -58.71875 L 28.125 0 Z M 5.1875 0 "/></g></g></g><g fill="#02577a" fill-opacity="1"><g transform="translate(1170.943414, 755.188278)"><g><path d="M 15.296875 0 L 15.296875 -94.765625 L 1.359375 -94.765625 L 1.359375 -117.296875 L 52.703125 -117.296875 L 52.703125 -94.765625 L 38.78125 -94.765625 L 38.78125 0 Z M 15.296875 0 "/></g></g></g></svg>